<?xml version="1.0" standalone="no"?>
<!DOCTYPE svg PUBLIC "-//W3C//DTD SVG 20010904//EN"
 "http://www.w3.org/TR/2001/REC-SVG-20010904/DTD/svg10.dtd">
<svg version="1.0" xmlns="http://www.w3.org/2000/svg"
 width="500.000000pt" height="500.000000pt" viewBox="0 0 500.000000 500.000000"
 preserveAspectRatio="xMidYMid meet">

<g transform="translate(0.000000,500.000000) scale(0.100000,-0.100000)"
fill="#000000" stroke="none">
<path d="M1300 3904 c-70 -5 -167 -21 -250 -41 -332 -80 -591 -336 -675 -668
-43 -169 -46 -244 -43 -1080 l3 -790 23 -47 c19 -39 33 -52 80 -75 l57 -28
835 0 835 0 49 24 c33 16 57 38 77 69 l29 46 0 657 c0 647 -3 709 -32 709 -4
0 -8 6 -8 14 0 21 -50 53 -101 66 -27 6 -210 11 -474 13 l-430 2 0 106 c0 100
1 107 28 142 54 72 53 71 432 77 306 5 343 7 375 24 51 27 90 67 90 92 0 12 6
24 13 26 9 4 13 65 15 250 3 211 1 248 -13 261 -8 9 -15 25 -15 35 0 30 -11
52 -25 52 -7 0 -16 7 -19 15 -3 9 -23 24 -43 33 -33 15 -83 17 -398 18 -198 1
-385 -1 -415 -2z"/>
<path d="M3645 3904 c-255 -23 -431 -85 -597 -209 -146 -110 -236 -238 -299
-426 -63 -188 -62 -168 -66 -1054 -5 -855 -3 -898 40 -962 12 -18 42 -43 67
-55 l45 -23 840 0 840 0 42 23 c50 26 83 59 83 83 0 10 5 19 11 21 22 7 28
160 28 678 -1 537 -5 650 -27 658 -7 2 -12 13 -12 25 0 28 -51 76 -98 93 -28
10 -138 13 -470 14 -279 0 -440 4 -453 10 -16 9 -19 22 -19 80 0 39 4 70 9 70
5 0 12 16 15 35 8 41 46 89 90 113 27 15 75 18 371 22 340 5 340 5 385 30 24
14 55 40 67 59 23 33 23 38 23 323 l0 289 -39 39 c-22 22 -52 45 -68 52 -20 9
-132 13 -398 14 -203 1 -388 0 -410 -2z"/>
</g>
</svg>
